<?xml version="1.0" encoding="UTF-8" standalone="no"?><!DOCTYPE svg PUBLIC "-//W3C//DTD SVG 1.1//EN" "http://www.w3.org/Graphics/SVG/1.1/DTD/svg11.dtd"><svg width="100%" height="100%" viewBox="0 0 842 596" version="1.1" xmlns="http://www.w3.org/2000/svg" xmlns:xlink="http://www.w3.org/1999/xlink" xml:space="preserve" xmlns:serif="http://www.serif.com/" style="fill-rule:evenodd;clip-rule:evenodd;stroke-linecap:round;stroke-linejoin:round;stroke-miterlimit:1.5;"><text x="56.19px" y="199.439px" style="font-family:'ArialMT', 'Arial', sans-serif;font-size:6px;">READY</text><text x="87.653px" y="191.767px" style="font-family:'ArialMT', 'Arial', sans-serif;font-size:6px;">down</text><path d="M111.005,194.373l3.622,1.756l-3.578,1.844c0.889,-0.911 0.867,-2.711 -0.044,-3.6Z"/><path d="M79.639,196.551c0,0 23.737,-0.286 32.108,-0.387" style="fill:none;stroke:#000;stroke-width:0.24px;"/><g transform="matrix(0.24,0,0,0.24,11.1037,-5.70856)"><text x="327.884px" y="883.665px" style="font-family:'ArialMT', 'Arial', sans-serif;font-size:25px;">M</text><text x="348.709px" y="883.665px" style="font-family:'ArialMT', 'Arial', sans-serif;font-size:25px;fill:#c00;stroke:#c00;stroke-width:1px;stroke-linecap:butt;stroke-miterlimit:2;">e</text></g><path d="M175.798,176.169l3.701,-1.582l-0.954,3.91c-0.105,-1.268 -1.478,-2.432 -2.747,-2.328Z"/><path d="M166.608,189.798c-0,-0 7.458,-8.801 11.029,-13.014" style="fill:none;stroke:#000;stroke-width:0.24px;"/><text x="153.587px" y="177.325px" style="font-family:'ArialMT', 'Arial', sans-serif;font-size:6px;">move</text><text x="320.417px" y="198.294px" style="font-family:'ArialMT', 'Arial', sans-serif;font-size:6px;">line to curve</text><text x="369.542px" y="232.476px" style="font-family:'ArialMT', 'Arial', sans-serif;font-size:6px;">line to curve</text><text x="205.452px" y="146.955px" style="font-family:'ArialMT', 'Arial', sans-serif;font-size:6px;">move</text><path d="M227.221,159.202l-3.995,-0.488l2.788,-2.903c-0.546,1.149 0.058,2.845 1.207,3.391Z"/><path d="M207,159.071c-32.818,-14.457 46.414,-12.01 18.939,-1.323" style="fill:none;stroke:#000;stroke-width:0.24px;"/><text x="494.08px" y="119.57px" style="font-family:'ArialMT', 'Arial', sans-serif;font-size:6px;">move</text><path d="M515.85,131.817l-3.995,-0.488l2.787,-2.903c-0.546,1.149 0.058,2.845 1.208,3.391Z"/><path d="M495.629,131.686c-32.819,-14.457 46.413,-12.01 18.939,-1.323" style="fill:none;stroke:#000;stroke-width:0.24px;"/><path d="M447.078,143.925l3.778,-1.388l-1.157,3.855c-0.038,-1.272 -1.349,-2.505 -2.621,-2.467Z"/><path d="M436.054,158.267c0,-0 8.798,-9.35 12.828,-13.633" style="fill:none;stroke:#000;stroke-width:0.24px;"/><g transform="matrix(0.24,0,0,0.24,9.14143,1.86614)"><text x="810.076px" y="729.938px" style="font-family:'ArialMT', 'Arial', sans-serif;font-size:25px;">M</text><text x="830.901px" y="729.938px" style="font-family:'ArialMT', 'Arial', sans-serif;font-size:25px;stroke:#c00;stroke-width:1px;stroke-linecap:butt;stroke-miterlimit:2;">_</text><text x="844.805px" y="729.938px" style="font-family:'ArialMT', 'Arial', sans-serif;font-size:25px;">C</text><text x="862.859px" y="729.938px" style="font-family:'ArialMT', 'Arial', sans-serif;font-size:25px;fill:#fc0;stroke:#c90;stroke-width:1px;stroke-linecap:butt;stroke-miterlimit:2;">e</text><text x="876.763px" y="729.938px" style="font-family:'ArialMT', 'Arial', sans-serif;font-size:25px;">00</text></g><text x="255.251px" y="161.926px" style="font-family:'ArialMT', 'Arial', sans-serif;font-size:6px;">up</text><path d="M268.044,163.096l3.622,1.754l-3.577,1.845c0.889,-0.911 0.866,-2.711 -0.045,-3.599Z"/><path d="M247.174,165.16c0,0 15.139,-0.192 21.612,-0.274" style="fill:none;stroke:#000;stroke-width:0.24px;"/><text x="331.364px" y="158.484px" style="font-family:'ArialMT', 'Arial', sans-serif;font-size:6px;">down</text><path d="M348.748,162.866l3.558,1.883l-3.641,1.716c0.921,-0.879 0.962,-2.678 0.083,-3.599Z"/><path d="M329.274,164.215c-0,-0 13.974,0.324 20.152,0.467" style="fill:none;stroke:#000;stroke-width:0.24px;"/><text x="430.425px" y="150.89px" style="font-family:'ArialMT', 'Arial', sans-serif;font-size:6px;">move</text><text x="557.114px" y="132.155px" style="font-family:'ArialMT', 'Arial', sans-serif;font-size:6px;">up</text><text x="164.389px" y="215.645px" style="font-family:'ArialMT', 'Arial', sans-serif;font-size:6px;">up</text><path d="M568.384,135.19l3.671,1.649l-3.521,1.948c0.861,-0.937 0.786,-2.735 -0.15,-3.597Z"/><path d="M550.581,137.734c-0,0 12.744,-0.531 18.597,-0.775" style="fill:none;stroke:#000;stroke-width:0.24px;"/><g transform="matrix(0.24,0,0,0.24,-5.88682,-0.0520893)"><text x="1363.88px" y="735.804px" style="font-family:'ArialMT', 'Arial', sans-serif;font-size:25px;">M</text><text x="1384.7px" y="735.804px" style="font-family:'ArialMT', 'Arial', sans-serif;font-size:25px;stroke:#c00;stroke-width:1px;stroke-linecap:butt;stroke-miterlimit:2;">_</text><text x="1398.61px" y="735.804px" style="font-family:'ArialMT', 'Arial', sans-serif;font-size:25px;">C</text><text x="1416.66px" y="735.804px" style="font-family:'ArialMT', 'Arial', sans-serif;font-size:25px;stroke:#c90;stroke-width:1px;stroke-linecap:butt;stroke-miterlimit:2;">_</text><text x="1430.57px" y="735.804px" style="font-family:'ArialMT', 'Arial', sans-serif;font-size:25px;fill:#03f;stroke:#03f;stroke-width:1px;stroke-linecap:butt;stroke-miterlimit:2;">ee</text></g><path d="M179.125,218.422l0.766,3.952l-3.621,-1.759c1.262,0.166 2.69,-0.931 2.855,-2.193Z"/><path d="M165.193,203.236c0,0 9.044,11.777 12.943,16.854" style="fill:none;stroke:#000;stroke-width:0.24px;"/><text x="644.593px" y="125.898px" style="font-family:'ArialMT', 'Arial', sans-serif;font-size:6px;">down</text><text x="324.011px" y="235.129px" style="font-family:'ArialMT', 'Arial', sans-serif;font-size:6px;">up</text><text x="153.587px" y="177.325px" style="font-family:'ArialMT', 'Arial', sans-serif;font-size:6px;">move</text><text x="153.587px" y="177.325px" style="font-family:'ArialMT', 'Arial', sans-serif;font-size:6px;">move</text><text x="302.31px" y="245.289px" style="font-family:'ArialMT', 'Arial', sans-serif;font-size:6px;">append ﬁgure</text><text x="393.269px" y="185.17px" style="font-family:'ArialMT', 'Arial', sans-serif;font-size:6px;">append ﬁgure</text><text x="546.164px" y="146.016px" style="font-family:'ArialMT', 'Arial', sans-serif;font-size:6px;">append ﬁgure</text><text x="387.682px" y="217.058px" style="font-family:'ArialMT', 'Arial', sans-serif;font-size:6px;">up</text><text x="406.943px" y="242.155px" style="font-family:'ArialMT', 'Arial', sans-serif;font-size:6px;">append ﬁgure</text><path d="M597.842,146.036l1.506,-2.015l0.708,2.414c-0.454,-0.653 -1.561,-0.853 -2.214,-0.399Z"/><path d="M380.993,216.123c213.809,75.26 203.251,12.614 218.036,-70.33" style="fill:none;stroke:#000;stroke-width:0.15px;"/><text x="81.582px" y="227.673px" style="font-family:'ArialMT', 'Arial', sans-serif;font-size:6px;">add ﬁgure</text><path d="M253.732,220.388l3.655,1.686l-3.542,1.912c0.872,-0.928 0.815,-2.727 -0.113,-3.598Z"/><path d="M228.581,222.98c-0,0 18.633,-0.586 25.927,-0.816" style="fill:none;stroke:#000;stroke-width:0.24px;"/><text x="231.821px" y="217.42px" style="font-family:'ArialMT', 'Arial', sans-serif;font-size:6px;">down</text><text x="231.663px" y="232.861px" style="font-family:'ArialMT', 'Arial', sans-serif;font-size:6px;">M_Le</text><path d="M341.902,208.691l3.991,-0.52l-1.979,3.505c0.243,-1.249 -0.763,-2.742 -2.012,-2.985Z"/><path d="M325.412,221.979c-0,-0 12.691,-8.556 18.093,-12.198" style="fill:none;stroke:#000;stroke-width:0.24px;"/><text x="432.502px" y="179.022px" style="font-family:'ArialMT', 'Arial', sans-serif;font-size:6px;">up</text><text x="321.218px" y="212.518px" style="font-family:'ArialMT', 'Arial', sans-serif;font-size:6px;">move</text><g transform="matrix(0.24,0,0,0.24,2.39579,5.3925)"><text x="1440.21px" y="880.297px" style="font-family:'ArialMT', 'Arial', sans-serif;font-size:25px;">M</text><text x="1461.04px" y="880.297px" style="font-family:'ArialMT', 'Arial', sans-serif;font-size:25px;fill:#c00;stroke:#c00;stroke-width:1px;stroke-linecap:butt;stroke-miterlimit:2;">_</text><text x="1474.94px" y="880.297px" style="font-family:'ArialMT', 'Arial', sans-serif;font-size:25px;">C</text><text x="1493px" y="880.297px" style="font-family:'ArialMT', 'Arial', sans-serif;font-size:25px;fill:#c00;stroke:#c00;stroke-width:1px;stroke-linecap:butt;stroke-miterlimit:2;">m</text><text x="1513.82px" y="880.297px" style="font-family:'ArialMT', 'Arial', sans-serif;font-size:25px;fill:#060;stroke:#060;stroke-width:1px;stroke-linecap:butt;stroke-miterlimit:2;">e&apos;</text><text x="1532.5px" y="880.297px" style="font-family:'ArialMT', 'Arial', sans-serif;font-size:25px;stroke:#03f;stroke-width:1px;stroke-linecap:butt;stroke-miterlimit:2;">e&apos;&apos;</text></g><path d="M607.518,118.797l0.772,39.137" style="fill:none;stroke:#000;stroke-width:0.55px;stroke-linecap:butt;stroke-dasharray:0.55,0.55,0.55,0;stroke-dashoffset:27.5;"/><path d="M458.536,161.629l-26.898,28.439" style="fill:none;stroke:#000;stroke-width:0.55px;stroke-linecap:butt;stroke-dasharray:0.55,0.55,0.55,0;stroke-dashoffset:27.5;"/><path d="M351.297,237.932l-19.038,17.025" style="fill:none;stroke:#000;stroke-width:0.55px;stroke-linecap:butt;stroke-dasharray:0.55,0.55,0.55,0;stroke-dashoffset:27.5;"/><text x="347.507px" y="249.279px" style="font-family:'ArialMT', 'Arial', sans-serif;font-size:6px;">M_L_</text><rect x="91.07" y="216.783" width="3.787" height="3.441" style="fill:none;stroke:#c00;stroke-width:0.55px;"/><rect x="204.465" y="192.181" width="3.787" height="3.441" style="fill:none;stroke:#c00;stroke-width:0.55px;"/><path d="M236.063,244.162l9.722,0.192" style="fill:none;stroke:#000;stroke-width:0.55px;"/><ellipse cx="214.748" cy="182.853" rx="1.684" ry="1.865" style="fill:none;stroke:#c90;stroke-width:0.55px;"/><path d="M207.144,191.612l7.035,-8.136" style="fill:none;stroke:#000;stroke-width:0.55px;"/><rect x="322.577" y="189.539" width="2.952" height="2.745" style="fill:none;stroke:#c00;stroke-width:0.55px;"/><rect x="343.074" y="189.517" width="2.952" height="2.745" style="fill:none;stroke:#03f;stroke-width:0.55px;"/><rect x="232.626" y="242.951" width="2.952" height="2.745" style="fill:none;stroke:#c00;stroke-width:0.55px;"/><rect x="245.869" y="242.945" width="2.952" height="2.745" style="fill:none;stroke:#03f;stroke-width:0.55px;"/><path d="M357.595,222.893l9.722,0.191" style="fill:none;stroke:#000;stroke-width:0.55px;"/><rect x="354.158" y="221.682" width="2.952" height="2.745" style="fill:none;stroke:#c00;stroke-width:0.55px;"/><rect x="367.401" y="221.676" width="2.952" height="2.745" style="fill:none;stroke:#03f;stroke-width:0.55px;"/><path d="M352.389,254.042l9.722,0.191" style="fill:none;stroke:#000;stroke-width:0.55px;"/><rect x="348.952" y="252.831" width="2.952" height="2.745" style="fill:none;stroke:#c00;stroke-width:0.55px;"/><rect x="362.195" y="252.825" width="2.952" height="2.745" style="fill:none;stroke:#03f;stroke-width:0.55px;"/><path d="M324.34,190.526c9.453,-10.432 18.497,-0.906 18.497,-0.906" style="fill:none;stroke:#000;stroke-width:0.55px;"/><ellipse cx="333.291" cy="180.548" rx="1.684" ry="1.865" style="fill:none;stroke:#c90;stroke-width:0.55px;"/><path d="M325.687,189.308l7.034,-8.137" style="fill:none;stroke:#000;stroke-width:0.55px;"/><g transform="matrix(0.24,0,0,0.24,111.398,14.9932)"><text x="1363.88px" y="735.804px" style="font-family:'ArialMT', 'Arial', sans-serif;font-size:25px;">M</text><text x="1384.7px" y="735.804px" style="font-family:'ArialMT', 'Arial', sans-serif;font-size:25px;stroke:#c00;stroke-width:1px;stroke-linecap:butt;stroke-miterlimit:2;">_</text><text x="1398.61px" y="735.804px" style="font-family:'ArialMT', 'Arial', sans-serif;font-size:25px;">C</text><text x="1416.66px" y="735.804px" style="font-family:'ArialMT', 'Arial', sans-serif;font-size:25px;stroke:#c90;stroke-width:1px;stroke-linecap:butt;stroke-miterlimit:2;">_</text><text x="1430.57px" y="735.804px" style="font-family:'ArialMT', 'Arial', sans-serif;font-size:25px;fill:#03f;stroke:#03f;stroke-width:1px;stroke-linecap:butt;stroke-miterlimit:2;">ee</text></g><rect x="439.861" y="204.584" width="2.952" height="2.745" style="fill:none;stroke:#c00;stroke-width:0.55px;"/><rect x="460.358" y="204.562" width="2.952" height="2.745" style="fill:none;stroke:#03f;stroke-width:0.55px;"/><path d="M441.624,205.571c9.453,-10.432 18.497,-0.906 18.497,-0.906" style="fill:none;stroke:#000;stroke-width:0.55px;"/><ellipse cx="450.575" cy="195.594" rx="1.684" ry="1.865" style="fill:none;stroke:#c90;stroke-width:0.55px;"/><path d="M442.971,204.353l7.035,-8.137" style="fill:none;stroke:#000;stroke-width:0.55px;"/><g transform="matrix(0.24,0,0,0.24,161.351,-27.309)"><text x="1363.88px" y="735.804px" style="font-family:'ArialMT', 'Arial', sans-serif;font-size:25px;">M</text><text x="1384.7px" y="735.804px" style="font-family:'ArialMT', 'Arial', sans-serif;font-size:25px;stroke:#c00;stroke-width:1px;stroke-linecap:butt;stroke-miterlimit:2;">_</text><text x="1398.61px" y="735.804px" style="font-family:'ArialMT', 'Arial', sans-serif;font-size:25px;">C</text><text x="1416.66px" y="735.804px" style="font-family:'ArialMT', 'Arial', sans-serif;font-size:25px;stroke:#c90;stroke-width:1px;stroke-linecap:butt;stroke-miterlimit:2;">_</text><text x="1430.57px" y="735.804px" style="font-family:'ArialMT', 'Arial', sans-serif;font-size:25px;fill:#060;stroke:#060;stroke-width:1px;stroke-linecap:butt;stroke-miterlimit:2;">e</text><text x="1444.47px" y="735.804px" style="font-family:'ArialMT', 'Arial', sans-serif;font-size:25px;stroke:#03f;stroke-width:1px;stroke-linecap:butt;stroke-miterlimit:2;">_</text></g><g transform="matrix(0.24,0,0,0.24,311.699,-29.8367)"><text x="1363.88px" y="735.804px" style="font-family:'ArialMT', 'Arial', sans-serif;font-size:25px;">M</text><text x="1384.7px" y="735.804px" style="font-family:'ArialMT', 'Arial', sans-serif;font-size:25px;stroke:#c00;stroke-width:1px;stroke-linecap:butt;stroke-miterlimit:2;">_</text><text x="1398.61px" y="735.804px" style="font-family:'ArialMT', 'Arial', sans-serif;font-size:25px;">C</text><text x="1416.66px" y="735.804px" style="font-family:'ArialMT', 'Arial', sans-serif;font-size:25px;stroke:#c90;stroke-width:1px;stroke-linecap:butt;stroke-miterlimit:2;">_</text><text x="1430.57px" y="735.804px" style="font-family:'ArialMT', 'Arial', sans-serif;font-size:25px;fill:#060;stroke:#060;stroke-width:1px;stroke-linecap:butt;stroke-miterlimit:2;">e</text><text x="1444.47px" y="735.804px" style="font-family:'ArialMT', 'Arial', sans-serif;font-size:25px;stroke:#03f;stroke-width:1px;stroke-linecap:butt;stroke-miterlimit:2;">_</text><text x="1458.37px" y="735.804px" style="font-family:'ArialMT', 'Arial', sans-serif;font-size:25px;stroke:#000;stroke-width:1px;stroke-linecap:butt;stroke-miterlimit:2;">C</text><text x="1476.43px" y="735.804px" style="font-family:'ArialMT', 'Arial', sans-serif;font-size:25px;stroke:#666;stroke-width:1px;stroke-linecap:butt;stroke-miterlimit:2;">_</text><text x="1490.33px" y="735.804px" style="font-family:'ArialMT', 'Arial', sans-serif;font-size:25px;fill:#63f;stroke:#63f;stroke-width:1px;stroke-linecap:butt;stroke-miterlimit:2;">ee</text></g><rect x="489.814" y="162.282" width="2.952" height="2.745" style="fill:none;stroke:#c00;stroke-width:0.55px;"/><rect x="510.311" y="162.26" width="2.952" height="2.745" style="fill:none;stroke:#03f;stroke-width:0.55px;"/><ellipse cx="500.529" cy="153.292" rx="1.684" ry="1.865" style="fill:none;stroke:#c90;stroke-width:0.55px;"/><ellipse cx="503.033" cy="173.221" rx="1.684" ry="1.865" style="fill:none;stroke:#360;stroke-width:0.55px;"/><path d="M492.925,162.051l7.034,-8.137" style="fill:none;stroke:#000;stroke-width:0.55px;"/><ellipse cx="519.945" cy="154.681" rx="1.684" ry="1.865" style="fill:#666;stroke:#666;stroke-width:0.55px;"/><path d="M512.341,163.44l7.034,-8.136" style="fill:none;stroke:#666;stroke-width:0.55px;"/><path d="M504.928,171.918l7.034,-8.136" style="fill:none;stroke:#000;stroke-width:0.55px;"/><path d="M355.951,222.833c0,0 4.337,10.068 13.184,0.194" style="fill:none;stroke:#000;stroke-width:0.6px;"/><ellipse cx="360.334" cy="232.634" rx="1.684" ry="1.865" style="fill:none;stroke:#360;stroke-width:0.55px;"/><ellipse cx="377.245" cy="214.094" rx="1.684" ry="1.865" style="fill:#666;stroke:#666;stroke-width:0.55px;"/><path d="M369.641,222.853l7.034,-8.136" style="fill:none;stroke:#666;stroke-width:0.55px;"/><path d="M362.228,231.33l7.034,-8.136" style="fill:none;stroke:#000;stroke-width:0.55px;"/><path d="M491.521,163.145c9.08,-9.904 11.135,11.043 20.465,-0.451" style="fill:none;stroke:#000;stroke-width:0.55px;"/><rect x="624.12" y="161.312" width="2.952" height="2.745" style="fill:none;stroke:#c00;stroke-width:0.55px;"/><rect x="644.617" y="161.29" width="2.952" height="2.745" style="fill:none;stroke:#03f;stroke-width:0.55px;"/><rect x="665.61" y="161.5" width="2.952" height="2.745" style="fill:none;stroke:#63c;stroke-width:0.55px;"/><ellipse cx="634.834" cy="152.322" rx="1.684" ry="1.865" style="fill:none;stroke:#c90;stroke-width:0.55px;"/><ellipse cx="637.339" cy="172.252" rx="1.684" ry="1.865" style="fill:none;stroke:#360;stroke-width:0.55px;"/><path d="M627.23,161.081l7.034,-8.136" style="fill:none;stroke:#000;stroke-width:0.55px;"/><ellipse cx="654.25" cy="153.712" rx="1.684" ry="1.865" style="fill:#666;stroke:#666;stroke-width:0.55px;"/><path d="M646.646,162.471l7.034,-8.137" style="fill:none;stroke:#666;stroke-width:0.55px;"/><path d="M639.233,170.948l7.034,-8.136" style="fill:none;stroke:#000;stroke-width:0.55px;"/><path d="M625.826,162.175c9.08,-9.904 11.136,11.043 20.465,-0.45" style="fill:none;stroke:#000;stroke-width:0.55px;"/><path d="M646.8,162.491c7.883,-8.913 20.64,-0.081 20.64,-0.081" style="fill:none;stroke:#000;stroke-width:0.6px;"/><path d="M353.336,150.736l1.783,2.841l-3.343,-0.278c1.031,-0.251 1.811,-1.532 1.56,-2.563Z"/><path d="M640.709,133.612c57.806,-42.362 -371.822,-34.607 -287.641,18.718" style="fill:none;stroke:#000;stroke-width:0.2px;"/><path d="M210.672,240.884l1.587,-2.955l1.411,3.043c-0.727,-0.772 -2.227,-0.816 -2.998,-0.088Z"/><path d="M325.718,226.688c74.302,60.134 -110.69,50.676 -113.529,13.64" style="fill:none;stroke:#000;stroke-width:0.2px;"/><path d="M201.856,241.36l2.094,-2.621l0.84,3.248c-0.577,-0.891 -2.044,-1.204 -2.934,-0.627Z"/><path d="M441.147,176.342c145.642,120.299 -243.978,119.683 -237.698,64.744" style="fill:none;stroke:#000;stroke-width:0.2px;"/><text x="121.13px" y="198.406px" style="font-family:'ArialMT', 'Arial', sans-serif;font-size:6px;stroke:#000;stroke-width:0.24px;stroke-linecap:butt;stroke-miterlimit:2;">DOWN_POINT</text><text x="192.866px" y="167.851px" style="font-family:'ArialMT', 'Arial', sans-serif;font-size:6px;stroke:#000;stroke-width:0.24px;stroke-linecap:butt;stroke-miterlimit:2;">DOWN_CUR<tspan x="228.09px 232.092px " y="167.851px 167.851px ">VE</tspan></text><text x="277.186px" y="168.533px" style="font-family:'ArialMT', 'Arial', sans-serif;font-size:6px;stroke:#000;stroke-width:0.24px;stroke-linecap:butt;stroke-miterlimit:2;">UP_CUR<tspan x="301.748px 305.75px " y="168.533px 168.533px ">VE</tspan></text><text x="362.633px" y="166.227px" style="font-family:'ArialMT', 'Arial', sans-serif;font-size:6px;stroke:#000;stroke-width:0.24px;stroke-linecap:butt;stroke-miterlimit:2;">DOWN_CUR<tspan x="397.857px 401.859px " y="166.227px 166.227px ">VE</tspan>_POINT</text><text x="460.649px" y="141.266px" style="font-family:'ArialMT', 'Arial', sans-serif;font-size:6px;stroke:#000;stroke-width:0.24px;stroke-linecap:butt;stroke-miterlimit:2;">DOWN_CUR<tspan x="495.872px 499.874px " y="141.266px 141.266px ">VE</tspan>_CUR<tspan x="520.104px 524.106px " y="141.266px 141.266px ">VE</tspan></text><text x="591.878px" y="138.118px" style="font-family:'ArialMT', 'Arial', sans-serif;font-size:6px;stroke:#000;stroke-width:0.24px;stroke-linecap:butt;stroke-miterlimit:2;">UP_X_CUR<tspan x="623.78px 627.781px " y="138.118px 138.118px ">VE</tspan></text><text x="185.018px" y="223.902px" style="font-family:'ArialMT', 'Arial', sans-serif;font-size:6px;stroke:#000;stroke-width:0.24px;stroke-linecap:butt;stroke-miterlimit:2;">UP_POINT</text><text x="259.132px" y="225.767px" style="font-family:'ArialMT', 'Arial', sans-serif;font-size:6px;stroke:#000;stroke-width:0.24px;stroke-linecap:butt;stroke-miterlimit:2;">DOWN_POINT_POINT</text><text x="331.295px" y="206.44px" style="font-family:'ArialMT', 'Arial', sans-serif;font-size:6px;stroke:#000;stroke-width:0.24px;stroke-linecap:butt;stroke-miterlimit:2;">DOWN_POINT_CUR<tspan x="388.19px 392.192px " y="206.44px 206.44px ">VE</tspan></text></svg>