<?xml version="1.0" encoding="UTF-8" standalone="no"?><!DOCTYPE svg PUBLIC "-//W3C//DTD SVG 1.1//EN" "http://www.w3.org/Graphics/SVG/1.1/DTD/svg11.dtd"><svg width="100%" height="100%" viewBox="0 0 44 44" version="1.1" xmlns="http://www.w3.org/2000/svg" xmlns:xlink="http://www.w3.org/1999/xlink" xml:space="preserve" xmlns:serif="http://www.serif.com/" style="fill-rule:evenodd;clip-rule:evenodd;stroke-linejoin:round;stroke-miterlimit:1.41421;"><rect x="0" y="0" width="43.082" height="43.082"/><path d="M8.995,28.217l1.476,3.24l1.536,-3.24l1.368,0l1.536,3.336l1.548,-3.336l2.412,0l-3.216,6.156l-1.452,0l-1.536,-3.372l-1.464,3.372l-1.476,0l-3.156,-6.156l2.424,0Z" style="fill:#fff;fill-rule:nonzero;"/><path d="M20.188,31.037c0,0.208 0.038,0.398 0.114,0.57c0.076,0.172 0.176,0.322 0.3,0.45c0.124,0.128 0.272,0.228 0.444,0.3c0.172,0.072 0.354,0.108 0.546,0.108c0.192,0 0.374,-0.036 0.546,-0.108c0.172,-0.072 0.32,-0.172 0.444,-0.3c0.124,-0.128 0.224,-0.278 0.3,-0.45c0.076,-0.172 0.114,-0.358 0.114,-0.558c0,-0.192 -0.038,-0.374 -0.114,-0.546c-0.076,-0.172 -0.176,-0.322 -0.3,-0.45c-0.124,-0.128 -0.272,-0.228 -0.444,-0.3c-0.172,-0.072 -0.354,-0.108 -0.546,-0.108c-0.192,0 -0.374,0.036 -0.546,0.108c-0.172,0.072 -0.32,0.172 -0.444,0.3c-0.124,0.128 -0.224,0.276 -0.3,0.444c-0.076,0.168 -0.114,0.348 -0.114,0.54Zm-2.292,-0.024c0,-0.456 0.092,-0.882 0.276,-1.278c0.184,-0.396 0.44,-0.74 0.768,-1.032c0.328,-0.292 0.718,-0.522 1.17,-0.69c0.452,-0.168 0.946,-0.252 1.482,-0.252c0.528,0 1.018,0.082 1.47,0.246c0.452,0.164 0.844,0.392 1.176,0.684c0.332,0.292 0.59,0.64 0.774,1.044c0.184,0.404 0.276,0.85 0.276,1.338c0,0.488 -0.094,0.934 -0.282,1.338c-0.188,0.404 -0.446,0.752 -0.774,1.044c-0.328,0.292 -0.722,0.518 -1.182,0.678c-0.46,0.16 -0.958,0.24 -1.494,0.24c-0.528,0 -1.016,-0.08 -1.464,-0.24c-0.448,-0.16 -0.834,-0.388 -1.158,-0.684c-0.324,-0.296 -0.578,-0.65 -0.762,-1.062c-0.184,-0.412 -0.276,-0.87 -0.276,-1.374Z" style="fill:#fff;fill-rule:nonzero;"/><path d="M25.427,28.217l2.172,0l0,1.008c0.232,-0.368 0.516,-0.65 0.852,-0.846c0.336,-0.196 0.728,-0.294 1.176,-0.294c0.056,0 0.118,0 0.186,0c0.068,0 0.146,0.008 0.234,0.024l0,2.076c-0.288,-0.144 -0.6,-0.216 -0.936,-0.216c-0.504,0 -0.882,0.15 -1.134,0.45c-0.252,0.3 -0.378,0.738 -0.378,1.314l0,2.64l-2.172,0l0,-6.156Z" style="fill:#fff;fill-rule:nonzero;"/><path d="M32.333,24.413l0,6.024l2.28,-2.22l2.976,0l-3.084,2.844l3.264,3.312l-3.048,0l-2.388,-2.508l0,2.508l-2.172,0l0,-9.96l2.172,0Z" style="fill:#fff;fill-rule:nonzero;"/><path d="M2.385,34.766l0,-1.14c0,-0.408 0.086,-0.79 0.258,-1.146c0.172,-0.356 0.404,-0.666 0.696,-0.93c0.292,-0.264 0.632,-0.472 1.02,-0.624c0.388,-0.152 0.798,-0.228 1.23,-0.228c0.432,0 0.842,0.076 1.23,0.228c0.388,0.152 0.728,0.36 1.02,0.624c0.292,0.264 0.524,0.574 0.696,0.93c0.172,0.356 0.258,0.738 0.258,1.146l0,7.296l-2.172,0l0,-7.296c0,-0.144 -0.026,-0.282 -0.078,-0.414c-0.052,-0.132 -0.124,-0.25 -0.216,-0.354c-0.092,-0.104 -0.2,-0.188 -0.324,-0.252c-0.124,-0.064 -0.262,-0.096 -0.414,-0.096c-0.152,0 -0.292,0.032 -0.42,0.096c-0.128,0.064 -0.236,0.146 -0.324,0.246c-0.088,0.1 -0.158,0.218 -0.21,0.354c-0.052,0.136 -0.078,0.276 -0.078,0.42l0,1.14l1.248,0l0,1.812l-1.248,0l0,4.344l-2.172,0l0,-4.344l-0.78,0l0,-1.812l0.78,0Z" style="fill:#fff;fill-rule:nonzero;"/><path d="M11.285,37.586c0,0.208 0.038,0.398 0.114,0.57c0.076,0.172 0.176,0.322 0.3,0.45c0.124,0.128 0.272,0.228 0.444,0.3c0.172,0.072 0.354,0.108 0.546,0.108c0.192,0 0.374,-0.036 0.546,-0.108c0.172,-0.072 0.32,-0.172 0.444,-0.3c0.124,-0.128 0.224,-0.278 0.3,-0.45c0.076,-0.172 0.114,-0.358 0.114,-0.558c0,-0.192 -0.038,-0.374 -0.114,-0.546c-0.076,-0.172 -0.176,-0.322 -0.3,-0.45c-0.124,-0.128 -0.272,-0.228 -0.444,-0.3c-0.172,-0.072 -0.354,-0.108 -0.546,-0.108c-0.192,0 -0.374,0.036 -0.546,0.108c-0.172,0.072 -0.32,0.172 -0.444,0.3c-0.124,0.128 -0.224,0.276 -0.3,0.444c-0.076,0.168 -0.114,0.348 -0.114,0.54Zm-2.292,-0.024c0,-0.456 0.092,-0.882 0.276,-1.278c0.184,-0.396 0.44,-0.74 0.768,-1.032c0.328,-0.292 0.718,-0.522 1.17,-0.69c0.452,-0.168 0.946,-0.252 1.482,-0.252c0.528,0 1.018,0.082 1.47,0.246c0.452,0.164 0.844,0.392 1.176,0.684c0.332,0.292 0.59,0.64 0.774,1.044c0.184,0.404 0.276,0.85 0.276,1.338c0,0.488 -0.094,0.934 -0.282,1.338c-0.188,0.404 -0.446,0.752 -0.774,1.044c-0.328,0.292 -0.722,0.518 -1.182,0.678c-0.46,0.16 -0.958,0.24 -1.494,0.24c-0.528,0 -1.016,-0.08 -1.464,-0.24c-0.448,-0.16 -0.834,-0.388 -1.158,-0.684c-0.324,-0.296 -0.578,-0.65 -0.762,-1.062c-0.184,-0.412 -0.276,-0.87 -0.276,-1.374Z" style="fill:#fff;fill-rule:nonzero;"/><path d="M17.934,34.766l1.476,3.24l1.536,-3.24l1.368,0l1.536,3.336l1.548,-3.336l2.412,0l-3.216,6.156l-1.452,0l-1.536,-3.372l-1.464,3.372l-1.476,0l-3.156,-6.156l2.424,0Z" style="fill:#fff;fill-rule:nonzero;"/></svg>